<?xml version="1.0" encoding="UTF-8"?>
<!DOCTYPE svg PUBLIC "-//W3C//DTD SVG 1.1//EN" "http://www.w3.org/Graphics/SVG/1.1/DTD/svg11.dtd">
<!-- Creator: CorelDRAW X8 -->
<svg xmlns="http://www.w3.org/2000/svg" xml:space="preserve" width="532px" height="126px" version="1.1" style="shape-rendering:geometricPrecision; text-rendering:geometricPrecision; image-rendering:optimizeQuality; fill-rule:evenodd; clip-rule:evenodd"
viewBox="0 0 532 126"
 xmlns:xlink="http://www.w3.org/1999/xlink">
 <defs>
  <style type="text/css">
   <![CDATA[
    .str0 {stroke:#0093DD;stroke-width:23.6221}
    .fil0 {fill:none}
    .fil4 {fill:#373435;fill-rule:nonzero}
    .fil3 {fill:#0093DD;fill-rule:nonzero}
    .fil1 {fill:#827F7F;fill-rule:nonzero}
    .fil2 {fill:#A3D037;fill-rule:nonzero}
   ]]>
  </style>
    <mask id="id0">
  <linearGradient id="id1" gradientUnits="userSpaceOnUse" x1="-50.209" y1="157.32" x2="494.35" y2="24.774">
   <stop offset="0" style="stop-opacity:1; stop-color:white"/>
   <stop offset="0.0196078" style="stop-opacity:-3.51765; stop-color:white"/>
   <stop offset="1" style="stop-opacity:0; stop-color:white"/>
  </linearGradient>
     <rect style="fill:url(#id1)" x="138" y="17" width="360.57" height="93.6013"/>
    </mask>
 </defs>
 <g id="Camada_x0020_1">
  <metadata id="CorelCorpID_0Corel-Layer"/>
  <g id="_1524053523456">
   <path class="fil0 str0" style="mask:url(#id0)" d="M150 99c90,-43 201,-65 337,-70"/>
   <g>
    <path class="fil1" d="M0 75l4 0c1,2 3,4 5,5 1,1 4,1 6,1 3,0 5,0 7,-2 1,-1 2,-3 2,-5 0,-4 -3,-7 -10,-9l-1 0c-5,-2 -8,-3 -10,-5 -2,-3 -3,-5 -3,-8 0,-5 2,-8 5,-10 3,-3 7,-4 12,-4 2,0 4,0 6,1 2,0 5,1 7,2l0 9 -4 0c-1,-2 -2,-4 -4,-5 -2,-1 -4,-2 -6,-2 -2,0 -4,1 -6,2 -1,2 -2,3 -2,5 0,2 1,4 2,5 2,1 5,2 10,4 4,1 7,3 9,5 2,2 3,5 3,8 0,5 -1,8 -4,11 -4,3 -7,4 -12,4 -4,0 -7,0 -9,-1 -3,0 -5,-1 -7,-2l0 -9zm50 -36l0 47 -8 0 0 -47 8 0zm-8 -19l10 0 0 8 -10 0 0 -8zm23 19l8 0 0 3 1 1c1,-2 3,-3 5,-4 2,-1 4,-1 6,-1 3,0 6,0 8,2 2,1 4,3 5,5 2,-2 4,-4 6,-5 2,-2 5,-2 8,-2 5,0 8,1 10,4 3,3 4,8 4,14l0 4 0 26 -8 0 0 -28c0,-5 -1,-8 -2,-10 -1,-2 -4,-3 -7,-3 -1,0 -3,0 -5,1 -1,0 -3,2 -5,3l0 37 -8 0 0 -28c0,-5 0,-9 -2,-10 -1,-2 -3,-3 -6,-3 -2,0 -4,0 -5,1 -2,0 -4,1 -5,3l0 37 -8 0 0 -47zm82 11l0 26c2,1 4,2 5,3 2,1 4,1 5,1 4,0 7,-1 8,-4 2,-3 3,-8 3,-14 0,-5 -1,-10 -3,-13 -1,-3 -4,-4 -8,-4 -1,0 -3,0 -5,1 -1,1 -3,2 -5,4zm-8 -11l8 0 0 4 1 0c2,-2 4,-3 6,-4 1,-1 3,-1 5,-1 5,0 10,2 13,6 3,5 4,11 4,19 0,7 -1,13 -4,18 -3,4 -7,6 -13,6 -2,0 -4,0 -5,-1 -2,-1 -4,-2 -6,-4l-1 0 0 19 -8 0 0 -62zm49 -19l8 0 0 66 -8 0 0 -66zm30 19l0 47 -8 0 0 -47 8 0zm-8 -19l10 0 0 8 -10 0 0 -8zm25 25l-7 0 0 -6 7 0 0 -4c0,-5 1,-9 3,-10 2,-2 5,-3 10,-3l6 0 0 6 -3 0c-3,0 -5,1 -6,1 -1,1 -1,4 -1,7l0 3 8 0 0 6 -8 0 0 41 -9 0 0 -41zm34 -6l0 47 -8 0 0 -47 8 0zm-9 -19l11 0 0 8 -11 0 0 -8zm56 53l0 10c-3,1 -5,2 -7,3 -3,1 -5,1 -7,1 -7,0 -12,-2 -16,-7 -3,-4 -5,-10 -5,-18 0,-7 2,-13 5,-17 4,-5 9,-7 15,-7 3,0 5,0 7,1 2,1 5,2 8,3l0 10 -4 0c-2,-3 -3,-5 -5,-6 -2,-1 -4,-1 -6,-1 -4,0 -7,1 -9,4 -2,3 -3,8 -3,13 0,6 1,10 3,13 2,3 5,5 9,5 2,0 4,-1 6,-2 2,-1 4,-2 5,-5l4 0z"/>
    <path class="fil2" d="M341 59c2,0 4,0 8,1 4,0 7,0 9,0l3 0c0,0 0,-1 0,-2 0,0 0,-1 0,-1 0,-5 0,-9 1,-13 1,-5 2,-9 3,-14 -3,4 -6,8 -10,12 -3,4 -8,10 -14,17zm-13 9l-2 0c-1,0 -2,0 -3,0 -1,0 -1,0 -1,0 -2,0 -3,-1 -4,-1 -1,-1 -2,-1 -2,-2 0,-1 1,-2 3,-3 1,-1 1,-1 2,-2 0,0 0,0 1,0 1,-1 2,-2 4,-2 0,0 1,0 2,0 2,0 4,1 5,1l1 -1c25,-29 38,-44 40,-44 0,0 1,1 1,2 1,0 1,1 1,2 0,1 0,2 -1,4 -2,9 -3,19 -3,28 0,3 0,5 0,7 1,1 1,2 1,3 1,1 1,1 2,1 0,1 1,1 1,2 0,0 -1,1 -1,1 -1,1 -1,1 -2,1 0,5 1,10 3,14 0,1 0,2 0,2 0,0 0,1 0,2 -1,0 -2,0 -2,0 -1,0 -1,0 -2,0 0,0 -1,0 -1,0 0,0 0,0 -1,0 0,0 0,0 0,0 -1,0 -2,-1 -3,-1 -1,-1 -2,-1 -2,-1 -1,-2 -1,-4 -2,-6 -1,-3 -1,-6 -1,-10l-1 0c-2,0 -5,1 -9,2 -4,0 -8,1 -10,1 -1,0 -2,0 -3,0 -1,0 -2,0 -4,0 -4,5 -9,12 -14,20 -7,9 -11,14 -11,14 -1,0 -2,1 -4,2 -1,0 -3,1 -3,1 0,0 -1,-1 -1,-1 0,0 -1,-1 -1,-1 0,-1 3,-5 10,-13 6,-8 12,-15 17,-22zm82 7c2,-2 4,-3 4,-4 1,0 2,-1 2,-1 0,0 1,1 1,1 0,0 0,0 0,1 0,1 0,3 -2,5 -1,1 -3,3 -5,5 -2,1 -5,3 -7,4 -3,1 -5,2 -6,2 -1,0 -1,0 -2,-1 -1,0 -2,0 -2,0 0,0 -1,0 -1,0 0,0 -1,0 -1,0 -2,0 -4,0 -6,-2 -1,-1 -2,-2 -2,-4 0,-3 1,-6 2,-9 2,-4 4,-7 7,-10 3,-3 6,-6 10,-9 5,-2 8,-4 9,-4 2,0 3,1 5,2 1,1 2,2 2,3 0,1 -1,2 -1,3 -1,1 -2,2 -2,2 0,0 -1,0 -2,0 0,0 -1,-1 -1,-1 -2,0 -4,1 -5,2 -2,2 -3,3 -5,6 -2,2 -3,5 -4,7 0,2 -1,4 -1,5 0,1 0,1 1,2 0,0 0,0 1,0 0,0 2,0 4,-1 3,-1 5,-3 7,-4zm-15 15l0 0c3,0 6,1 7,2 2,1 3,3 3,6 0,3 -1,5 -3,7 -2,1 -5,2 -9,2 -5,0 -8,0 -9,-2 -2,-1 -3,-2 -3,-5 0,0 0,0 0,-1 0,0 1,0 1,0 0,0 1,1 4,1 2,1 4,1 6,1 1,0 2,0 3,-1 1,0 2,-1 2,-2 0,-1 -1,-2 -2,-2 -1,-1 -3,-1 -5,-1 0,0 0,0 0,0 0,0 0,0 -1,0 0,0 0,0 -1,0 0,0 0,-1 0,-1 0,0 0,0 0,0 0,0 0,0 0,-1l3 -7 5 0 -1 4zm39 -13c1,0 4,-1 6,-3 3,-2 6,-5 9,-9 2,-3 3,-5 5,-7 1,-2 1,-4 1,-5 0,0 0,0 0,0 0,0 0,0 0,0 -2,0 -4,1 -6,3 -3,2 -6,5 -9,8 -2,3 -4,5 -5,7 -1,2 -2,4 -2,5 0,1 0,1 0,1 0,0 1,0 1,0zm14 -4c-2,2 -5,4 -7,6 -2,1 -4,3 -6,3 -3,1 -5,2 -7,3 -2,0 -4,0 -4,0 -1,0 -3,0 -3,-2 -1,-1 -2,-2 -2,-4 0,-1 1,-3 1,-4 1,-2 2,-4 4,-7 2,-3 4,-5 7,-8 3,-3 6,-5 10,-7 3,-2 5,-3 8,-4 2,-1 5,-2 6,-2 3,0 5,1 7,2 2,1 3,2 3,3 0,0 -1,2 -1,5 -1,2 -2,5 -2,7 -1,4 -2,8 -3,11 0,4 -1,6 -1,6 0,1 0,2 1,2 0,1 0,1 0,2 0,0 0,1 -1,2 -1,0 -1,1 -2,1 -1,0 -1,-1 -2,-1 -1,0 -1,0 -1,0 -1,0 -1,0 -1,0 -1,0 -1,0 -1,0 -1,0 -2,-1 -3,-2 0,-1 -1,-4 -1,-7 0,-1 0,-1 0,-2 0,-1 1,-2 1,-3zm8 -34c-1,0 -1,0 -1,0 -1,0 -2,-1 -3,-1 -1,0 -2,1 -3,2 0,1 -1,2 -2,2l-3 0c0,0 -1,0 -1,0 0,0 0,-1 0,-1 0,-2 1,-5 3,-7 2,-2 4,-3 7,-3 1,0 1,0 2,0 1,0 2,1 3,1l2 1c1,0 1,0 2,0 0,0 1,0 1,0 2,0 3,0 3,-1 1,-2 2,-2 2,-2l3 0c1,0 1,0 1,0 0,0 0,1 0,1 0,2 -1,5 -3,7 -2,2 -4,3 -7,3 0,0 -1,0 -2,0 0,-1 -1,-1 -1,-1l-3 -1zm34 19c-3,3 -4,7 -6,10 -1,4 -2,7 -2,10 0,1 0,1 0,2 1,1 1,1 2,1 2,0 4,-1 6,-4 3,-3 5,-6 6,-9 -2,-2 -3,-3 -4,-5 -1,-2 -2,-3 -2,-5zm-1 -7c0,-1 1,-2 3,-3 2,-1 3,-2 4,-2 1,0 3,1 5,4 2,2 3,5 3,7 0,1 0,1 0,2 0,1 -1,2 -1,3 0,3 0,6 -1,8 -1,3 -3,5 -5,8 -3,3 -6,5 -9,7 -4,2 -7,3 -10,3 -3,0 -5,-1 -7,-3 -1,-1 -2,-3 -2,-6 0,-5 2,-10 5,-16 4,-5 9,-9 15,-12z"/>
   </g>
   <path class="fil3" d="M517 31c1,0 1,-1 1,-2 0,-8 -7,-15 -15,-15 -1,0 -1,0 -1,1 0,1 0,2 1,2 7,0 12,5 13,12 0,1 0,2 1,2z"/>
   <path class="fil3" d="M524 31c1,0 1,-1 1,-2 0,-12 -10,-22 -22,-22 -1,0 -1,1 -1,1 0,1 0,2 1,2 11,0 19,9 19,19 0,1 1,2 2,2z"/>
   <path class="fil3" d="M532 29c0,-16 -13,-29 -29,-29 -1,0 -1,1 -1,1 0,1 0,2 1,2 14,0 26,12 26,26 0,2 3,2 3,0z"/>
   <path class="fil4" d="M2 111l0 6 1 0c1,0 1,-1 2,-1 1,-1 1,-1 1,-2 0,-1 0,-2 -1,-2 -1,-1 -1,-1 -2,-1l-1 0zm-2 -1l3 0c2,0 3,0 3,1 1,1 2,2 2,3 0,1 -1,2 -1,3 -1,1 -2,1 -4,1l-1 0 0 5 -2 0 0 -13zm18 4c-1,0 -1,1 -2,1 0,1 0,2 0,3 0,1 0,2 0,3 1,0 1,1 2,1 1,0 2,-1 2,-1 0,-1 1,-2 1,-3 0,-1 -1,-2 -1,-3 0,0 -1,-1 -2,-1zm-4 4c0,-2 0,-3 1,-4 1,-1 2,-1 3,-1 2,0 3,0 3,1 1,1 1,2 1,4 0,2 0,3 -1,4 0,1 -1,1 -3,1 -1,0 -2,0 -3,-1 -1,-1 -1,-2 -1,-4zm15 -5l2 0 0 1c0,0 0,0 0,0 0,0 0,1 0,1l0 0c0,-1 0,-1 1,-1 0,-1 1,-1 2,-1l0 0 0 2 -1 0c-1,0 -1,0 -2,1 0,0 0,1 0,1l0 6 -2 0 0 -10zm17 2c-1,0 -1,0 -1,0 -1,-1 -1,-1 -1,-1 -1,0 -2,1 -2,1 0,1 -1,2 -1,3 0,1 1,2 1,3 0,0 1,1 2,1 0,0 0,0 1,-1 0,0 0,0 1,0l0 -6zm0 11l0 -4 -1 0c0,0 0,1 -1,1 0,0 0,0 -1,0 -1,0 -2,0 -2,-1 -1,-1 -1,-2 -1,-4 0,-2 0,-3 1,-4 0,-1 1,-1 2,-1 1,0 1,0 1,0 1,0 1,1 1,1l1 0 0 -1 1 0 0 13 -1 0zm16 -3l-2 0 0 -1 0 0c-1,1 -1,1 -1,1 -1,0 -1,0 -2,0 0,0 -1,0 -1,0 -1,-1 -1,-1 -1,-2 0,0 0,0 0,-1 0,0 0,-1 0,-2l0 -5 1 0 0 6c0,1 0,2 1,2 0,1 0,1 1,1 0,0 1,0 1,0 0,-1 1,-1 1,-1l0 -8 2 0 0 10zm14 -5l0 0 -6 0c0,2 0,2 1,3 0,0 1,1 2,1 0,0 1,0 1,-1 1,0 1,0 1,0l1 0 0 1c-1,1 -1,1 -2,1 0,0 -1,0 -1,0 -2,0 -3,0 -3,-1 -1,-1 -2,-2 -2,-4 0,-2 1,-3 2,-4 0,-1 1,-1 3,-1 1,0 1,0 2,1 1,1 1,2 1,3l0 1zm-1 -1c0,-1 -1,-2 -1,-2 0,-1 -1,-1 -2,-1 0,0 -1,0 -1,1 -1,0 -1,1 -1,2l5 0 0 0zm21 -3c0,0 -1,1 -1,1 -1,1 -1,2 -1,3 0,1 0,2 1,3 0,0 1,1 1,1 1,0 2,-1 2,-1 1,-1 1,-2 1,-3 0,-1 0,-2 -1,-3 0,0 -1,-1 -2,-1zm-4 4c0,-2 1,-3 1,-4 1,-1 2,-1 3,-1 2,0 3,0 3,1 1,1 1,2 1,4 0,2 0,3 -1,4 0,1 -1,1 -3,1 -1,0 -2,0 -3,-1 0,-1 -1,-2 -1,-4zm24 3l1 0c0,0 1,0 1,1 1,0 1,0 2,0 0,0 1,0 1,-1 0,0 0,0 0,-1 0,0 0,-1 -2,-1l0 0c-1,-1 -2,-1 -2,-2 0,0 -1,-1 -1,-1 0,-1 1,-2 1,-2 1,-1 2,-1 3,-1 0,0 1,0 1,0 1,0 1,0 2,1l0 1 -1 0c0,0 -1,0 -1,-1 0,0 -1,0 -1,0 -1,0 -1,0 -1,0 -1,1 -1,1 -1,1 0,1 0,1 1,1 0,1 0,1 1,1 1,0 2,1 2,1 1,1 1,1 1,2 0,1 0,2 -1,2 -1,1 -1,1 -2,1 -1,0 -2,0 -2,0 -1,0 -1,0 -2,-1l0 -1zm15 -8l0 10 -1 0 0 -10 1 0zm-2 -4l3 0 0 2 -3 0 0 -2zm10 4l1 0 0 1 1 0c0,0 0,-1 1,-1 0,0 0,0 1,0 1,0 1,0 2,0 0,1 0,1 1,1 0,0 0,0 1,-1 0,0 1,0 2,0 0,0 1,0 2,1 0,0 0,1 0,3l0 1 0 5 -1 0 0 -6c0,-1 0,-2 -1,-2 0,0 0,-1 -1,-1 0,0 -1,0 -1,1 0,0 -1,0 -1,0l0 8 -2 0 0 -6c0,-1 0,-2 0,-2 0,0 -1,-1 -2,-1 0,0 0,0 -1,1 0,0 0,0 -1,0l0 8 -1 0 0 -10zm21 2l0 6c1,0 1,0 1,0 1,1 1,1 1,1 1,0 2,-1 2,-1 0,-1 1,-2 1,-3 0,-1 -1,-2 -1,-3 0,0 -1,-1 -2,-1 0,0 0,0 -1,1 0,0 0,0 -1,0zm-1 -2l1 0 0 1 0 0c1,0 1,-1 2,-1 0,0 0,0 1,0 1,0 2,0 2,1 1,1 1,2 1,4 0,2 0,3 -1,4 0,1 -1,1 -2,1 -1,0 -1,0 -1,0 -1,0 -1,-1 -2,-1l0 0 0 4 -1 0 0 -13zm14 -4l2 0 0 14 -2 0 0 -14zm16 9l0 0 -6 0c0,2 1,2 1,3 1,0 1,1 2,1 1,0 1,0 1,-1 1,0 1,0 2,0l0 0 0 1c0,1 -1,1 -1,1 -1,0 -1,0 -2,0 -1,0 -2,0 -3,-1 -1,-1 -1,-2 -1,-4 0,-2 0,-3 1,-4 0,-1 1,-1 3,-1 1,0 2,0 2,1 1,1 1,2 1,3l0 1zm-1 -1c0,-1 0,-2 -1,-2 0,-1 -1,-1 -1,-1 -1,0 -2,0 -2,1 0,0 -1,1 -1,2l5 0 0 0zm7 4l1 0c0,0 1,0 1,1 1,0 1,0 1,0 1,0 2,0 2,-1 0,0 0,0 0,-1 0,0 0,-1 -2,-1l0 0c-1,-1 -2,-1 -2,-2 0,0 -1,-1 -1,-1 0,-1 1,-2 1,-2 1,-1 2,-1 3,-1 0,0 1,0 1,0 1,0 1,0 2,1l0 1 -1 0c0,0 -1,0 -1,-1 0,0 -1,0 -1,0 -1,0 -1,0 -1,0 -1,1 -1,1 -1,1 0,1 0,1 0,1 1,1 1,1 2,1 1,0 2,1 2,1 1,1 1,1 1,2 0,1 0,2 -1,2 -1,1 -1,1 -2,1 -1,0 -2,0 -2,0 -1,0 -1,0 -2,-1l0 -1zm24 -7l-1 0 0 -1 1 0 0 -1c0,-1 0,-1 1,-2 0,0 1,0 2,0l1 0 0 1 -1 0c0,0 -1,0 -1,0 0,0 0,1 0,2l0 0 2 0 0 1 -2 0 0 9 -2 0 0 -9zm17 9l-2 0 0 -1 0 0c0,1 -1,1 -1,1 0,0 -1,0 -1,0 -1,0 -2,0 -2,0 0,-1 -1,-1 -1,-2 0,0 0,0 0,-1 0,0 0,-1 0,-2l0 -5 1 0 0 6c0,1 0,2 1,2 0,1 0,1 1,1 0,0 1,0 1,0 0,-1 1,-1 1,-1l0 -8 2 0 0 10zm7 -10l2 0 0 1 0 0c0,0 1,-1 1,-1 1,0 1,0 1,0 1,0 2,0 3,1 0,0 0,1 0,3l0 1 0 5 -1 0 0 -6c0,-1 0,-2 -1,-2 0,-1 0,-1 -1,-1 0,0 -1,0 -1,1 0,0 -1,0 -1,0l0 8 -2 0 0 -10zm21 7l0 2c0,0 -1,1 -1,1 -1,0 -1,0 -2,0 -1,0 -2,0 -3,-1 -1,-1 -1,-2 -1,-4 0,-2 0,-3 1,-4 1,-1 2,-1 3,-1 1,0 1,0 2,0 0,0 1,1 1,1l0 2 -1 0c0,-1 0,-1 -1,-1 0,-1 0,-1 -1,-1 -1,0 -1,1 -2,1 0,1 0,2 0,3 0,1 0,2 0,3 1,0 1,1 2,1 1,0 1,0 1,-1 1,0 1,0 1,-1l1 0zm8 -7l0 10 -1 0 0 -10 1 0zm-1 -4l2 0 0 2 -2 0 0 -2zm12 5c0,0 -1,1 -1,1 -1,1 -1,2 -1,3 0,1 0,2 1,3 0,0 1,1 1,1 1,0 2,-1 2,-1 1,-1 1,-2 1,-3 0,-1 0,-2 -1,-3 0,0 -1,-1 -2,-1zm-4 4c0,-2 1,-3 1,-4 1,-1 2,-1 3,-1 2,0 3,0 3,1 1,1 1,2 1,4 0,2 0,3 -1,4 0,1 -1,1 -3,1 -1,0 -2,0 -3,-1 0,-1 -1,-2 -1,-4zm15 -5l2 0 0 1 0 0c0,0 1,-1 1,-1 1,0 1,0 1,0 1,0 2,0 3,1 0,0 0,1 0,3l0 1 0 5 -1 0 0 -6c0,-1 0,-2 -1,-2 0,-1 0,-1 -1,-1 0,0 -1,0 -1,1 0,0 -1,0 -1,0l0 8 -2 0 0 -10zm19 5c-1,0 -2,0 -3,1 0,0 0,0 0,1 0,1 0,1 0,1 0,1 1,1 1,1 1,0 1,0 1,-1 1,0 1,0 1,0l0 -3zm0 4c0,0 0,1 -1,1 0,0 -1,0 -1,0 -1,0 -2,0 -2,-1 -1,0 -1,-1 -1,-2 0,-1 0,-1 1,-2 0,-1 2,-1 3,-1l1 0 0 -1c0,-1 0,-1 0,-1 -1,-1 -1,-1 -2,-1 0,0 0,0 -1,1 0,0 -1,0 -1,0l-1 0 0 -1c1,-1 1,-1 2,-1 0,0 1,0 1,0 1,0 2,0 3,1 1,0 1,1 1,2l0 7 -2 0 0 -1z"/>
  </g>
 </g>
</svg>
